<?xml version="1.0" encoding="iso-8859-1"?>
<!-- Generator: Adobe Illustrator 19.0.0, SVG Export Plug-In . SVG Version: 6.00 Build 0)  -->
<svg version="1.1" id="Capa_1" xmlns="http://www.w3.org/2000/svg" xmlns:xlink="http://www.w3.org/1999/xlink" x="0px" y="0px"
	 viewBox="0 0 512.049 512.049" style="enable-background:new 0 0 512.049 512.049;" xml:space="preserve">
<path style="fill:#C62828;" d="M512.017,351.171c0.301,3.926-1.585,7.699-4.907,9.813L272.444,510.318
	c-1.731,1.078-3.721,1.668-5.76,1.707v-223.36l245.333-10.453C512.017,278.211,511.591,347.118,512.017,351.171z"/>
<path style="fill:#F44336;" d="M266.684,288.664v223.36c-1.622-0.024-3.22-0.388-4.693-1.067l-256-128
	c-3.594-1.76-5.901-5.385-5.973-9.387v-73.6L266.684,288.664z"/>
<path style="fill:#CFD8DC;" d="M505.447,256.856l-256-106.667c-2.984-1.249-6.374-1.077-9.216,0.469l-234.667,128
	c-5.17,2.824-7.072,9.304-4.249,14.474c1.043,1.909,2.644,3.454,4.59,4.427l256,128c3.35,1.678,7.334,1.475,10.496-0.533
	l234.667-149.333c4.968-3.166,6.428-9.76,3.262-14.728C509.16,259.13,507.456,257.696,505.447,256.856L505.447,256.856z"/>
<g>
	<path style="fill:#B0BEC5;" d="M266.684,362.691c-1.659,0-3.295-0.387-4.779-1.131l-256-128c-5.272-2.633-7.412-9.042-4.779-14.315
		c2.633-5.272,9.042-7.412,14.315-4.779l250.603,125.312l229.568-146.091c4.972-3.163,11.567-1.697,14.731,3.275
		c3.164,4.972,1.697,11.567-3.275,14.731L272.401,361.027C270.692,362.113,268.709,362.69,266.684,362.691z"/>
	<path style="fill:#B0BEC5;" d="M266.684,298.691c-1.659,0-3.295-0.387-4.779-1.131l-256-128c-5.272-2.633-7.412-9.042-4.779-14.315
		c2.633-5.272,9.042-7.412,14.315-4.779l250.603,125.312l229.568-146.091c4.972-3.163,11.567-1.697,14.731,3.275
		c3.164,4.972,1.697,11.567-3.275,14.731L272.401,297.027C270.692,298.113,268.709,298.69,266.684,298.691z"/>
	<path style="fill:#B0BEC5;" d="M10.684,170.691c-5.891-0.004-10.664-4.783-10.66-10.674c0.003-3.902,2.135-7.491,5.561-9.358
		l234.667-128c2.842-1.546,6.232-1.719,9.216-0.469l256,106.667c5.437,2.268,8.007,8.515,5.739,13.952
		c-2.268,5.437-8.515,8.007-13.952,5.739L245.969,43.843L15.783,169.39C14.219,170.242,12.466,170.69,10.684,170.691z"/>
	<path style="fill:#B0BEC5;" d="M10.684,234.691c-5.891-0.004-10.664-4.783-10.66-10.674c0.003-3.902,2.135-7.491,5.561-9.358
		l234.667-128c2.842-1.546,6.232-1.719,9.216-0.469l256,106.667c5.437,2.268,8.007,8.515,5.739,13.952s-8.515,8.007-13.952,5.739
		L245.969,107.843L15.783,233.39C14.219,234.242,12.466,234.69,10.684,234.691z"/>
</g>
<g>
	<path style="fill:#455A64;" d="M501.351,362.691c-5.891,0-10.667-4.776-10.667-10.667V117.358c0-5.891,4.776-10.667,10.667-10.667
		c5.891,0,10.667,4.776,10.667,10.667v234.667C512.017,357.915,507.242,362.691,501.351,362.691z"/>
	<path style="fill:#455A64;" d="M10.684,384.024c-5.891,0-10.667-4.776-10.667-10.667V138.691c0-5.891,4.776-10.667,10.667-10.667
		s10.667,4.776,10.667,10.667v234.667C21.351,379.249,16.575,384.024,10.684,384.024z"/>
	<path style="fill:#455A64;" d="M245.351,170.691c-5.891,0-10.667-4.776-10.667-10.667V10.691c0-5.891,4.776-10.667,10.667-10.667
		s10.667,4.776,10.667,10.667v149.333C256.017,165.915,251.242,170.691,245.351,170.691z"/>
	<path style="fill:#455A64;" d="M266.684,426.691c-5.891,0-10.667-4.776-10.667-10.667V266.691c0-5.891,4.776-10.667,10.667-10.667
		c5.891,0,10.667,4.776,10.667,10.667v149.333C277.351,421.915,272.575,426.691,266.684,426.691z"/>
</g>
<g>
</g>
<g>
</g>
<g>
</g>
<g>
</g>
<g>
</g>
<g>
</g>
<g>
</g>
<g>
</g>
<g>
</g>
<g>
</g>
<g>
</g>
<g>
</g>
<g>
</g>
<g>
</g>
<g>
</g>
</svg>
