<svg id="Layer_1" enable-background="new 0 0 256 256" height="512" viewBox="0 0 256 256" width="512" xmlns="http://www.w3.org/2000/svg"><g><path d="m208.16 51.06c-4.83 0-9.65 1.99-13.11 5.96l-130.48 147.92h-48.03c-5.52 0-10-4.48-10-10v-133.88c0-5.52 4.48-10 10-10z" fill="#ff4a73"/><path d="m249.46 61.06v133.88c0 5.52-4.48 10-10 10h-174.89l75.97-60.44 78.43-62.4c4.36-3.46 6.59-8.54 6.59-13.65 0-4.25-1.54-8.52-4.71-11.89-3.44-3.68-8.07-5.5-12.69-5.5h31.3c5.52 0 10 4.48 10 10z" fill="#3193f3"/><path d="m198.681 117.633 11.695 3.966 9.897-7.386-.158 12.348 10.083 7.13-11.793 3.666-3.666 11.793-7.13-10.083-12.348.158 7.385-9.897z" fill="#ffe2e2"/><path d="m128 62.961 5.465 11.074 12.221 1.776-8.843 8.62 2.088 12.171-10.931-5.746-10.931 5.746 2.088-12.171-8.843-8.62 12.221-1.776z" fill="#ffe2e2"/><path d="m75.325 62.961 5.465 11.074 12.221 1.776-8.843 8.62 2.087 12.171-10.93-5.746-10.931 5.746 2.087-12.171-8.843-8.62 12.221-1.776z" fill="#ffe2e2"/><path d="m23.128 100.812 11.696 3.966 9.897-7.386-.158 12.348 10.083 7.131-11.793 3.665-3.666 11.793-7.13-10.083-12.349.158 7.386-9.897z" fill="#ffe2e2"/><path d="m220.85 56.56c-3.44-3.68-8.07-5.5-12.69-5.5-4.83 0-9.65 1.99-13.11 5.96l-69.415 78.693c-.158-.351-.321-.698-.493-1.038-.161-.423-.334-.844-.519-1.263l-6.866-15.534c-5.778-13.072-21.059-18.985-34.131-13.207-13.072 5.778-18.985 21.059-13.207 34.131l6.866 15.534c.185.419.381.83.585 1.234.161.423.334.844.519 1.263l.132-.058c3.833 6.684 10.323 11.101 17.509 12.501l-31.46 35.664h148.16l-14.35-26.19c-11.58-21.12-33.75-34.25-57.84-34.25l-.001-.001 78.431-62.399c4.36-3.46 6.59-8.54 6.59-13.65 0-4.25-1.54-8.52-4.71-11.89z" fill="#ffe2e2"/><path d="m31.54 204.94h-15c-5.52 0-10-4.48-10-10v-133.88c0-5.52 4.48-10 10-10h15c-5.52 0-10 4.48-10 10v133.88c0 5.52 4.48 10 10 10z" fill="#f973a3"/><path d="m249.46 61.06v133.88c0 5.52-4.48 10-10 10h-15c5.52 0 10-4.48 10-10v-133.88c0-5.52-4.48-10-10-10h15c5.52 0 10 4.48 10 10z" fill="#307fed"/><g fill="#5f266d"><path d="m239.46 47.06c-11.181 0-206.449 0-222.92 0-7.72 0-14 6.28-14 14v133.88c0 7.72 6.28 14 14 14h222.92c7.72 0 14-6.28 14-14v-133.88c0-7.72-6.28-14-14-14zm-222.92 153.88c-3.309 0-6-2.691-6-6v-133.88c0-3.309 2.691-6 6-6h174.905l-64.672 73.317-5.356-12.117c-3.227-7.299-9.103-12.906-16.545-15.786-4.942-1.913-10.182-2.463-15.282-1.677 1.138-1.73.734-2.141-1.123-12.97l7.337-7.152c1.09-1.063 1.483-2.652 1.012-4.1s-1.722-2.503-3.229-2.723l-10.14-1.474-4.535-9.188c-.674-1.366-2.064-2.23-3.587-2.23s-2.913.864-3.587 2.23l-4.535 9.188-10.14 1.474c-3.274.476-4.588 4.512-2.217 6.823l7.337 7.152-1.732 10.099c-.559 3.261 2.872 5.756 5.804 4.217l9.07-4.769 9.001 4.732c-8.473 2.946-14.94 9.282-18.101 17.449-2.88 7.443-2.689 15.562.537 22.861 6.705 15.17 9.277 25.162 22.202 30.818l-26.2 29.706zm64.403-111.65c-6.193-3.256-4.964-3.297-11.237 0 1.193-6.954 1.559-5.783-3.472-10.687 6.991-1.016 5.993-.328 9.091-6.604 3.124 6.328 2.15 5.596 9.091 6.604-5.011 4.885-4.671 3.704-3.473 10.687zm-7.511 111.65c27.247-30.889 26.379-29.537 26.567-31.227.233-2.105-1.218-3.979-3.204-4.365-10.502-2.045-14.343-10.04-15.124-11.04 0 0 .244.607-7.593-17.125-2.363-5.345-2.502-11.29-.394-16.74 2.109-5.45 6.214-9.752 11.559-12.115 5.346-2.363 11.29-2.503 16.74-.394s9.752 6.214 12.115 11.559l6.866 15.533c.824 1.867 1.27 3.733 3.365 4.458.024.008.047.017.071.025 1.603.521 3.225-.033 4.206-1.124.01-.011.023-.019.033-.031l69.425-78.708c8.188-9.395 23.494-3.387 23.494 8.802 0 4.124-1.851 7.957-5.08 10.52l-78.43 62.4c-1.466 1.167-1.939 3.282-1.054 4.976.7 1.345 2.108 2.154 3.545 2.154 22.633 0 43.451 12.328 54.332 32.172l11.105 20.268h-132.544zm172.028-6c0 3.309-2.691 6-6 6h-24.36l-13.212-24.113c-10.586-19.306-29.503-32.312-50.881-35.543l70.45-56.051c9.486-7.528 10.679-21.137 3.389-30.173h14.615c3.309 0 6 2.691 6 6v133.88z"/><path d="m232.508 130.425-8.366-5.916.132-10.246c.042-3.312-3.741-5.234-6.393-3.257l-8.212 6.128-9.703-3.291c-3.134-1.061-6.137 1.937-5.073 5.073l3.29 9.704-6.128 8.212c-2.025 2.714.069 6.498 3.257 6.392l10.246-.131c6.103 8.63 6.671 10.503 9.808 10.007 1.504-.238 2.742-1.309 3.193-2.763l3.042-9.785 9.785-3.042c3.159-.981 3.825-5.173 1.122-7.085zm-15.29 3.113c-1.257.391-2.241 1.375-2.632 2.632l-1.261 4.053-2.45-3.465c-.75-1.061-1.968-1.69-3.266-1.69-.017 0-.034 0-.051 0l-4.245.054 2.539-3.402c.787-1.055 1.005-2.43.582-3.677l-1.363-4.02 4.02 1.363c1.249.423 2.622.206 3.678-.583l3.401-2.539-.055 4.244c-.017 1.316.615 2.557 1.69 3.317l3.466 2.451z"/><path d="m114.859 85.827-1.732 10.099c-.257 1.501.359 3.018 1.591 3.913 2.601 1.888 4.244.288 13.282-4.464l9.069 4.769c2.928 1.539 6.364-.954 5.804-4.217l-1.732-10.099 7.338-7.152c2.369-2.31 1.06-6.346-2.217-6.823l-10.14-1.474-4.535-9.188c-1.464-2.966-5.709-2.969-7.174 0l-4.535 9.188-10.14 1.474c-3.274.476-4.588 4.512-2.217 6.823zm13.141-13.828c3.127 6.336 2.166 5.599 9.091 6.605-5.08 4.951-4.654 3.802-3.473 10.687-6.176-3.247-4.958-3.3-11.236 0 1.193-6.956 1.558-5.783-3.473-10.687 6.984-1.015 5.982-.306 9.091-6.605z"/><path d="m56.956 113.604-8.366-5.916.131-10.246c.042-3.309-3.739-5.237-6.392-3.257l-8.211 6.128-9.704-3.291c-3.134-1.061-6.136 1.936-5.073 5.073l3.291 9.704-6.128 8.212c-2.004 2.685.005 6.458 3.257 6.392l10.245-.131 5.917 8.366c1.915 2.708 6.102 2.039 7.085-1.122l3.041-9.785 9.785-3.042c1.454-.452 2.525-1.69 2.763-3.194.238-1.502-.398-3.011-1.641-3.891zm-15.29 3.113c-1.257.391-2.241 1.375-2.632 2.632l-1.26 4.053-2.451-3.465c-.75-1.061-1.968-1.69-3.266-1.69-.017 0-.034 0-.051 0l-4.244.054 2.539-3.402c.788-1.055 1.005-2.43.583-3.677l-1.363-4.02 4.02 1.363c1.248.423 2.622.206 3.677-.583l3.401-2.539-.054 4.244c-.017 1.316.615 2.557 1.69 3.317l3.466 2.451z"/><path d="m171.475 181.059h-3.325c-2.209 0-4 1.791-4 4s1.791 4 4 4h3.325c2.209 0 4-1.791 4-4s-1.791-4-4-4z"/><path d="m153.149 181.059h-23c-2.209 0-4 1.791-4 4s1.791 4 4 4h23c2.209 0 4-1.791 4-4s-1.791-4-4-4z"/></g></g></svg>