<?xml version="1.0" encoding="iso-8859-1"?>
<!-- Generator: Adobe Illustrator 19.0.0, SVG Export Plug-In . SVG Version: 6.00 Build 0)  -->
<svg xmlns="http://www.w3.org/2000/svg" xmlns:xlink="http://www.w3.org/1999/xlink" version="1.1" id="Layer_1" x="0px" y="0px" viewBox="0 0 512 512" style="enable-background:new 0 0 512 512;" xml:space="preserve" width="512" height="512">
<g>
	<g>
		<g>
			<g>
				<path style="fill:#FEF4F5;" d="M354.185,113.186C299.959,113.186,256,69.226,256,15c0,54.226-43.963,98.186-98.186,98.186      c-32.123,0-60.635-15.428-78.547-39.272V352.4c0,44.183,36.148,80.334,80.332,80.334h16.066c44.365,0,80.334,19.9,80.334,64.266      c0-44.365,35.967-64.266,80.334-64.266H352.4c44.184,0,80.332-36.151,80.332-80.334V73.913      C414.82,97.758,386.305,113.186,354.185,113.186z"/>
				<path style="fill:#D5EDED;" d="M354.185,113.186C299.959,113.186,256,69.226,256,15c0,0.84-0.011,1.676-0.031,2.51v478.25      c0.006,0.416,0.031,0.819,0.031,1.24c0-44.365,35.967-64.266,80.334-64.266H352.4c44.184,0,80.332-36.151,80.332-80.334V73.913      C414.82,97.758,386.305,113.186,354.185,113.186z"/>
				<path style="fill:#008ADF;" d="M256,512c-8.284,0-15-6.716-15-15c0-44.465-45.689-49.266-65.334-49.266H159.6      c-52.566,0-95.332-42.767-95.332-95.334V73.913c0-6.454,4.129-12.185,10.251-14.229c6.124-2.043,12.865,0.058,16.742,5.22      c15.889,21.15,40.146,33.281,66.554,33.281C203.684,98.186,241,60.868,241,15c0-8.284,6.716-15,15-15c8.284,0,15,6.716,15,15      c0,45.868,37.316,83.186,83.185,83.186c26.407,0,50.665-12.131,66.554-33.281c3.877-5.16,10.618-7.263,16.742-5.22      c6.122,2.044,10.251,7.774,10.251,14.229V352.4c0,52.567-42.766,95.334-95.332,95.334h-16.066      C316.69,447.734,271,452.535,271,497C271,505.284,264.284,512,256,512z M94.268,108.766V352.4      c0,36.025,29.308,65.334,65.332,65.334h16.066c26.332,0,49.016,6.344,65.598,18.344c5.713,4.134,10.633,8.87,14.736,14.151      c4.103-5.281,9.023-10.018,14.735-14.151c16.583-12,39.267-18.344,65.599-18.344H352.4c36.024,0,65.332-29.309,65.332-65.334      V108.766c-18.456,12.569-40.393,19.42-63.547,19.42c-41.943,0-78.633-22.936-98.185-56.922      c-19.553,33.986-56.242,56.922-98.186,56.922C134.66,128.186,112.724,121.335,94.268,108.766z"/>
				<path style="fill:#0065A3;" d="M437.481,59.685c-6.124-2.043-12.865,0.059-16.742,5.22      c-15.889,21.15-40.146,33.281-66.554,33.281C308.316,98.186,271,60.868,271,15c0-8.284-6.716-15-15-15      c-0.011,0-0.021,0.002-0.031,0.002v71.314c0.01-0.018,0.021-0.035,0.031-0.053c19.553,33.986,56.242,56.922,98.185,56.922      c23.154,0,45.091-6.851,63.547-19.42V352.4c0,36.025-29.308,65.334-65.332,65.334h-16.066c-26.332,0-49.016,6.344-65.599,18.344      c-5.712,4.134-10.633,8.87-14.735,14.151c-0.01-0.013-0.021-0.026-0.031-0.04v61.808c0.01,0,0.021,0.002,0.031,0.002      c8.284,0,15-6.716,15-15c0-44.465,45.69-49.266,65.334-49.266H352.4c52.566,0,95.332-42.767,95.332-95.334V73.913      C447.732,67.459,443.603,61.729,437.481,59.685z"/>
			</g>
		</g>
		<g>
			<g>
				<g>
					<path style="fill:#FF4949;" d="M135.053,241.645c-15.682,32.829-21.809,62.238-22.291,64.634       c-1.203,5.973,1.327,12.08,6.402,15.453c1.652,1.099,26.913,17.692,61.447,29.911L135.053,241.645z"/>
					<path style="fill:#F30051;" d="M392.837,190.269c-1.652-1.099-26.917-17.695-61.453-29.913l45.564,110.006       c15.682-32.832,21.809-62.244,22.291-64.64C400.441,199.749,397.911,193.642,392.837,190.269z"/>
					<path style="fill:#FF4949;" d="M357.953,302.901L294.93,150.742c-0.041-0.102-0.069-0.205-0.109-0.308       c-10.366-1.906-21.052-3.05-31.793-3.05c-17.494,0-33.73,3.051-48.26,9.068c-25.946,10.748-45.838,30.564-60.866,52.345       c0.046,0.104,0.102,0.2,0.146,0.306l63.018,152.152c0.043,0.102,0.07,0.206,0.11,0.309c10.368,1.908,21.056,3.052,31.798,3.053       c0.005,0,0.006,0,0.01,0c17.488,0,33.725-3.052,48.254-9.069c25.941-10.747,45.831-30.56,60.858-52.337       C358.049,303.106,357.996,303.008,357.953,302.901z"/>
					<path style="fill:#F30051;" d="M357.953,302.901L294.93,150.742c-0.041-0.102-0.069-0.205-0.109-0.308       c-10.366-1.906-21.052-3.05-31.793-3.05c-2.377,0-4.729,0.062-7.059,0.174v216.889c14.837-0.709,28.693-3.691,41.268-8.899       c25.941-10.747,45.831-30.56,60.858-52.337C358.049,303.106,357.996,303.008,357.953,302.901z"/>
				</g>
				<path style="fill:#FEF4F5;" d="M313.857,243.137L306,224.18c-3.174-7.653-11.948-11.287-19.602-8.113      c-6.12,2.537-9.657,8.658-9.21,14.922l-0.435,0.18c-4.115-4.744-10.946-6.57-17.068-4.034c-6.12,2.536-9.658,8.657-9.213,14.921      l-0.429,0.178c-4.114-4.745-10.944-6.572-17.066-4.035c-6.122,2.535-9.661,8.656-9.216,14.922l-0.431,0.18      c-4.114-4.747-10.945-6.574-17.067-4.037c-7.653,3.17-11.288,11.944-8.118,19.599l3.925,9.475c0,0.001,0.001,0.003,0.002,0.005      c0,0.003,0.002,0.005,0.003,0.007l3.922,9.47c2.393,5.776,7.977,9.264,13.864,9.264c1.912,0,3.857-0.368,5.734-1.146      c6.12-2.535,9.659-8.655,9.215-14.92l0.428-0.178c2.854,3.289,7.01,5.177,11.334,5.177c1.912,0,3.856-0.368,5.733-1.145      c6.12-2.534,9.659-8.654,9.216-14.918l0.432-0.179c2.853,3.29,7.01,5.178,11.334,5.178c1.913,0,3.858-0.368,5.736-1.146      c6.119-2.536,9.657-8.655,9.213-14.919l0.434-0.18c2.854,3.291,7.011,5.179,11.336,5.179c1.914,0,3.859-0.369,5.738-1.147      C313.397,259.565,317.029,250.789,313.857,243.137z"/>
			</g>
		</g>
	</g>
	<path style="fill:#D5EDED;" d="M313.857,243.137L306,224.18c-3.174-7.653-11.948-11.287-19.602-8.113   c-6.12,2.537-9.657,8.658-9.21,14.922l-0.435,0.18c-4.115-4.744-10.946-6.57-17.068-4.034c-1.378,0.571-2.617,1.332-3.717,2.227   v53.326c3.821-3.078,5.898-7.859,5.553-12.736l0.432-0.179c2.853,3.29,7.01,5.178,11.334,5.178c1.913,0,3.858-0.368,5.736-1.146   c6.119-2.536,9.657-8.655,9.213-14.919l0.434-0.18c2.854,3.291,7.011,5.179,11.336,5.179c1.914,0,3.859-0.369,5.738-1.147   C313.397,259.565,317.029,250.789,313.857,243.137z"/>
</g>















</svg>
