<svg id="Layer_1" enable-background="new 0 0 512 512" height="512" viewBox="0 0 512 512" width="512" xmlns="http://www.w3.org/2000/svg"><g><path d="m291.033 344.95-2.998 14.86c-.57-.01-28.568-1.55-62.092 3.05-32.405 4.45-69.975 14.64-92.887 37.5l-90.989 90.71-21.183-21.22 90.919-90.64c22.892-22.93 33.084-60.56 37.531-93.02 4.596-33.55 3.058-61.57 3.048-62.14l14.848-3c.05 2.82 2.138 42.52-6.295 85.22-2.118 10.77-4.916 21.73-8.583 32.33l18.765-18.8 19.525-19.55 21.183 21.22-19.525 19.55-18.815 18.85c10.622-3.68 21.603-6.49 32.385-8.62 42.676-8.44 82.345-6.35 85.163-6.3z" fill="#ffe150"/><g fill="#ffc552"><path d="m167.229 221.05c.05 2.82 2.138 42.52-6.295 85.22-4.327-6.42-8.194-13.12-11.601-20.08 4.596-33.55 3.058-61.57 3.048-62.14z"/><path d="m211.824 321.47-19.524 19.55c-3.787-3.17-7.454-6.52-10.981-10.05l-.1-.1c-3.547-3.56-6.925-7.25-10.102-11.07l19.525-19.55z"/><path d="m291.033 344.95-2.998 14.86c-.57-.01-28.568-1.55-62.092 3.05-6.955-3.4-13.659-7.27-20.074-11.61 42.677-8.44 82.346-6.35 85.164-6.3z"/></g><path d="m438.646 298.185 10.602-10.602-21.961-21.996 32.208-32.259 15.802 15.828 10.602-10.602-15.811-15.836 37.368-37.427-4.97-4.97 4.969-4.969-37.603-37.663 30.759-30.809-10.601-10.605-30.751 30.8-31.971-32.022 40.483-40.548-10.602-10.602-40.475 40.54-31.971-32.023 30.76-30.809-10.602-10.602-30.751 30.8-37.598-37.657-4.97 4.97-4.969-4.969-37.359 37.419-15.803-15.828-10.602 10.602 15.811 15.837-32.208 32.259-21.952-21.988-10.602 10.602 21.961 21.996-32.208 32.259-15.803-15.828-10.602 10.602 15.811 15.837-37.367 37.428 4.968 4.968-4.969 4.969 37.605 37.665-30.761 30.811 10.602 10.602 30.753-30.802 31.971 32.022-40.481 40.546 10.602 10.602 40.473-40.538 31.971 32.022-30.762 30.811 10.602 10.602 30.753-30.802 37.595 37.655 4.97-4.97 4.971 4.971 37.359-37.419 15.802 15.828 10.602-10.602-15.811-15.836 32.207-32.259zm-21.952-43.209-31.971-32.023 32.208-32.259 31.971 32.023zm-95.725-74.656-32.207 32.259-31.971-32.022 32.208-32.259zm-21.377-42.634 32.208-32.259 31.971 32.023-32.208 32.259zm31.971 53.245 31.971 32.022-32.207 32.259-31.971-32.022zm10.594-10.612 32.208-32.259 31.971 32.022-32.208 32.259zm149.073.001-31.735 31.786-31.971-32.023 31.735-31.786zm-42.565-42.634-31.735 31.786-31.971-32.022 31.735-31.786zm-42.565-42.633-31.735 31.786-31.971-32.023 31.735-31.786zm-74.537-74.656 31.971 32.022-31.734 31.786-31.971-32.022zm-42.328 42.396 31.971 32.022-32.208 32.259-31.971-32.022zm-42.802 42.871 31.971 32.022-32.207 32.259-31.971-32.022zm-74.536 74.656 31.735-31.786 31.971 32.022-31.735 31.786zm42.565 42.633 31.735-31.786 31.971 32.022-31.735 31.786zm42.565 42.633 31.735-31.786 31.971 32.022-31.735 31.786zm74.536 74.657-31.972-32.023 31.735-31.786 31.972 32.023zm42.33-42.397-31.972-32.023 32.207-32.259 31.972 32.023z" fill="#d8e5ef"/><g><path d="m511.068 167.77c3.667-48.239-11.71-92.23-43.297-123.868l-.043-.043c-31.585-31.61-75.493-46.997-123.636-43.326-47.737 3.64-93.981 25.631-130.213 61.921-36.23 36.289-58.185 82.604-61.818 130.414-3.667 48.239 11.71 92.23 43.297 123.868l.043.043c31.586 31.609 75.493 46.997 123.637 43.326 47.736-3.64 93.98-25.63 130.212-61.92 36.23-36.29 58.185-82.605 61.818-130.415zm-193.17 177.378c-43.717 3.333-83.454-10.507-111.9-38.977l-.039-.039c-59.05-59.144-50.741-163.702 18.522-233.077 33.701-33.755 76.584-54.199 120.749-57.567 43.717-3.334 83.453 10.508 111.899 38.976l.039.039c59.05 59.145 50.742 163.703-18.522 233.077-33.7 33.756-76.583 54.2-120.748 57.568z" fill="#f7904b"/></g><path d="m2.871 472.991c-3.814-3.82-3.829-9.999-.034-13.8 7.887-7.9 20.706-7.868 28.632.071l21.186 21.22c7.926 7.939 7.958 20.778.071 28.677-3.795 3.801-9.964 3.786-13.778-.034z" fill="#46637f"/><path d="m501.988 475.3-10.312 1.93 1.449 10.23c-13.499 15.03-33.074 24.5-54.807 24.5-3.387 0-6.725-.23-9.982-.68-17.706-2.41-33.424-11.13-44.825-23.82l4.247-12.51-13.11.35c-6.365-10.9-10.012-23.57-10.012-37.08s3.647-26.19 10.022-37.09l14.379-.01-5.516-12.14c11.391-12.69 27.109-21.41 44.815-23.82 3.257-.45 6.595-.68 9.982-.68 21.733 0 41.308 9.47 54.797 24.5l-.47 9.2 9.333 2.95c6.375 10.9 10.022 23.58 10.022 37.09s-3.647 26.18-10.012 37.08z" fill="#53f46e"/><path d="m501.988 475.3-10.312 1.93 1.449 10.23c-13.499 15.03-33.074 24.5-54.807 24.5-3.387 0-6.725-.23-9.982-.68 35.972-4.88 63.68-35.73 63.68-73.06s-27.708-68.18-63.68-73.06c3.257-.45 6.595-.68 9.982-.68 21.733 0 41.308 9.47 54.797 24.5l-.47 9.2 9.333 2.95c6.375 10.9 10.022 23.58 10.022 37.09s-3.647 26.18-10.012 37.08z" fill="#33e279"/><g fill="#eef7ff"><path d="m383.52 388.98c-3.357 3.73-6.325 7.8-8.863 12.15 12.7 7.48 21.243 21.31 21.243 37.09s-8.543 29.61-21.253 37.08c2.538 4.36 5.516 8.43 8.863 12.16 16.427-10.25 27.379-28.49 27.379-49.24s-10.951-38.99-27.369-49.24z"/><path d="m488.039 462.18c-4.616-6.86-7.304-15.1-7.304-23.96s2.698-17.11 7.304-23.97c3.607-5.34 8.374-9.84 13.939-13.12-2.538-4.35-5.506-8.42-8.863-12.15-4.546 2.83-8.673 6.28-12.25 10.23-9.393 10.31-15.118 24-15.118 39.01s5.726 28.7 15.118 39.01c3.587 3.95 7.714 7.4 12.26 10.23 3.347-3.73 6.325-7.8 8.863-12.16-5.576-3.28-10.352-7.78-13.949-13.12z"/></g><g fill="#d8e5ef"><path d="m488.039 414.25c-1.828-5.32-4.247-10.36-7.174-15.04 3.577-3.95 7.704-7.4 12.25-10.23 3.357 3.73 6.325 7.8 8.863 12.15-5.566 3.28-10.332 7.78-13.939 13.12z"/><path d="m501.988 475.3c-2.538 4.36-5.516 8.43-8.863 12.16-4.546-2.83-8.673-6.28-12.26-10.23 2.938-4.69 5.346-9.73 7.174-15.05 3.597 5.34 8.373 9.84 13.949 13.12z"/></g></g></svg>