<svg id="Capa_1" enable-background="new 0 0 512 512" height="512" viewBox="0 0 512 512" width="512" xmlns="http://www.w3.org/2000/svg"><g><path d="m487.12 301.99 5.45 52-40.65 32.91-14.9 50.12-50.12 14.91-32.91 40.64-52-5.45-45.99 24.88-45.99-24.88-52 5.45-32.91-40.65-50.12-14.9-14.91-50.12-40.64-32.91 5.45-52-24.88-45.99 24.88-45.99-5.45-52 40.65-32.91 14.9-50.12 50.12-14.91 32.91-40.64 52 5.45 45.99-24.88 45.99 24.88 52-5.45 32.91 40.65 50.12 14.9 14.91 50.12 40.64 32.91-5.45 52 24.88 45.99z" fill="#fcdb6e"/><path d="m487.12 301.99 5.45 52-40.65 32.91-14.9 50.12-50.12 14.91-32.91 40.64-52-5.45-45.99 24.88v-512l45.99 24.88 52-5.45 32.91 40.65 50.12 14.9 14.91 50.12 40.64 32.91-5.45 52 24.88 45.99z" fill="#fbb36c"/><path d="m331.249 404.278h-30v-140.5h45.126c24.882 0 45.124 20.243 45.124 45.125s-20.242 45.125-45.124 45.125h-15.126zm0-80.25h15.126c8.34 0 15.124-6.785 15.124-15.125s-6.784-15.125-15.124-15.125h-15.126z" fill="#202f51"/><path d="m241 263.77h30v140.51h-30z" fill="#3e4677"/><path d="m256 263.77h15v140.51h-15z" fill="#202f51"/><path d="m178.911 404.278h-24.573l-37.406-129.764 28.826-8.309 20.867 72.387 20.866-72.387 28.826 8.309z" fill="#3e4677"/><path d="m325.39 123.85-11.52 101.77h-115.74l-11.52-101.77 41.61 26.16 27.78-42.29 27.78 42.29z" fill="#f82a4f"/><path d="m325.39 123.85-11.52 101.77h-57.87v-117.9l27.78 42.29z" fill="#b42a41"/></g></svg>