<?xml version="1.0" encoding="iso-8859-1"?>
<!-- Generator: Adobe Illustrator 21.0.0, SVG Export Plug-In . SVG Version: 6.00 Build 0)  -->
<svg xmlns="http://www.w3.org/2000/svg" xmlns:xlink="http://www.w3.org/1999/xlink" version="1.1" id="Capa_1" x="0px" y="0px" viewBox="0 0 512.002 512.002" style="enable-background:new 0 0 512.002 512.002;" xml:space="preserve" width="512" height="512">
<g>
	<g>
		<g>
			<g>
				<g>
					<g>
						<path style="fill:#6BB7ED;" d="M302.938,180.387l0.306-0.14L291,104.299c-1.013-6.284-6.929-10.557-13.213-9.544        l-30.528,4.922c-6.284,1.013-10.557,6.929-9.544,13.213l-15.572-95.502c-1.013-6.284-6.929-10.557-13.213-9.544l-30.528,4.922        c-6.284,1.013-10.557,6.929-9.544,13.213l-0.62,0.1c-1.013-6.284-6.929-10.557-13.213-9.544l-30.528,4.922        c-6.284,1.013-10.557,6.929-9.544,13.213l-0.62,0.1c-1.013-6.284-6.929-10.557-13.213-9.544l-30.528,4.922        c-6.284,1.013-10.557,6.929-9.544,13.213l-0.62,0.1c-1.013-6.284-6.929-10.557-13.213-9.544l-30.528,4.922        c-6.284,1.013-10.557,6.929-9.544,13.213l20.04,124.3l-0.194-0.088c0,0,2.345,13.938,7.49,45.843        c2.855,17.702,10.714,34.218,22.647,47.602l32.437,33.549l-0.074,0.507l165-27l0.213-1.808l0.119,1.859        C254.824,276.815,309.545,256.624,302.938,180.387z"/>
						<path style="fill:#4EA6E6;" d="M222.144,17.388c-1.013-6.284-6.929-10.557-13.213-9.544l-13.284,2.142        c2.32,1.728,4,4.321,4.497,7.402l27.853,170.615l21.496-4L222.144,17.388z"/>
						<g>
							<path style="fill:#FDDB33;" d="M222.144,17.388c-1.013-6.284-6.929-10.557-13.213-9.544l-30.528,4.922         c-6.284,1.013-10.557,6.929-9.544,13.213l-0.62,0.1c-1.013-6.284-6.929-10.557-13.213-9.544l-30.528,4.922         c-6.284,1.013-10.557,6.929-9.544,13.213l-0.62,0.1c-1.013-6.284-6.929-10.557-13.213-9.544l-30.528,4.922         c-6.284,1.013-10.557,6.929-9.544,13.213l-0.62,0.1c-1.013-6.284-6.929-10.557-13.213-9.544l-30.528,4.922         c-6.284,1.013-10.557,6.929-9.544,13.213l4.124,25.583l215.007-34.891L222.144,17.388z"/>
						</g>
						<g>
							<path style="fill:#4EA6E6;" d="M92.335,34.77l16.11,99.924l21.443-3.457L114.335,34.77         c-1.013-6.284-6.929-10.557-13.213-9.544l-13.284,2.142C90.159,29.096,91.839,31.688,92.335,34.77z"/>
						</g>
						<g>
							<path style="fill:#4EA6E6;" d="M146.24,26.079l16.11,99.924l21.483-3.21L168.24,26.079         c-1.013-6.284-6.929-10.557-13.213-9.544l-13.284,2.142C144.063,20.405,145.743,22.997,146.24,26.079z"/>
							<path style="fill:#4EA6E6;" d="M38.431,43.461l16.11,99.924l21.443-3.457L60.431,43.461         c-1.013-6.284-6.929-10.557-13.213-9.544l-13.284,2.142C36.255,37.787,37.934,40.379,38.431,43.461z"/>
						</g>
						<path style="fill:#4EA6E6;" d="M302.938,180.387l0.306-0.14L291,104.299c-1.013-6.284-6.929-10.557-13.213-9.544        l-13.284,2.142c2.32,1.728,4,4.321,4.497,7.402l12.245,75.948l-0.306,0.14c3.768,43.48-12.411,68.724-27.011,82.395        l0.898,14.033C254.824,276.815,309.545,256.624,302.938,180.387z"/>
						<path style="fill:#FFFFFF;" d="M221.493,284.764l-7.123-42.502c-4.914-30.482-33.609-51.209-64.09-46.294l0,0        c-30.482,4.915-51.208,33.609-46.293,64.091l7.507,42.705"/>
						
							<rect x="93.479" y="289.559" transform="matrix(0.9873 -0.1592 0.1592 0.9873 -48.6395 32.4431)" style="fill:#FDDB33;" width="169.465" height="60.605"/>
					</g>
					<g>
						<path style="fill:#FDDB33;" d="M237.715,112.89c-1.013-6.284,3.26-12.2,9.544-13.213l30.528-4.922        c6.284-1.013,12.199,3.26,13.213,9.544l3.571,22.149l-53.3,8.497L237.715,112.89z"/>
					</g>
					<g>
						<polygon style="fill:none;" points="76.541,143.385 64.507,68.74 65.022,68.657 76.747,143.352       "/>
						
							<rect x="124.427" y="59.548" transform="matrix(0.9873 -0.1592 0.1592 0.9873 -13.9026 21.0956)" style="fill:none;" width="0.628" height="75.577"/>
						
							<rect x="178.333" y="50.888" transform="matrix(0.9873 -0.1592 0.1592 0.9873 -11.8346 29.5654)" style="fill:none;" width="0.628" height="75.546"/>
						<path style="fill:#F9C032;" d="M255.787,98.755c6.284-1.013,12.199,3.26,13.213,9.544l3.493,21.668l22.077-3.52L291,104.299        c-1.013-6.284-6.929-10.557-13.213-9.544l-30.528,4.922c-1.08,0.174-2.095,0.502-3.04,0.943L255.787,98.755z"/>
						<path style="fill:#F9C032;" d="M133.027,20.535c6.284-1.013,12.199,3.26,13.213,9.544l4.012,24.887l22.073-3.546        l-4.085-25.341c-1.013-6.284-6.929-10.557-13.213-9.544l-30.528,4.922c-1.08,0.174-2.095,0.502-3.04,0.943L133.027,20.535z"/>
						<path style="fill:#F9C032;" d="M222.144,17.388c-1.013-6.284-6.929-10.557-13.213-9.544l-18.083,2.916        c5.103,0.479,9.442,4.333,10.295,9.628l3.853,25.615l21.239-3.244L222.144,17.388z"/>
						<path style="fill:#F9C032;" d="M25.218,37.917c6.284-1.013,12.2,3.26,13.213,9.544l4.002,24.825l22.073-3.546l-4.075-25.279        c-1.013-6.284-6.929-10.557-13.213-9.544l-30.528,4.922c-1.08,0.174-2.095,0.502-3.04,0.943L25.218,37.917z"/>
						<path style="fill:#F9C032;" d="M79.123,29.226c6.284-1.013,12.199,3.26,13.213,9.544l4.007,24.856l22.073-3.546l-4.081-25.31        c-1.013-6.284-6.929-10.557-13.213-9.544l-30.528,4.922c-1.08,0.174-2.095,0.502-3.04,0.943L79.123,29.226z"/>
					</g>
				</g>
			</g>
			<g>
				<g>
					<g>
						<path style="fill:#6BB7ED;" d="M494.799,180.078l-30.528-4.922c-6.284-1.013-12.2,3.26-13.213,9.544l-0.62-0.1        c1.013-6.284-3.26-12.2-9.544-13.213l-30.528-4.922c-6.284-1.013-12.199,3.26-13.213,9.544l-0.62-0.1        c1.013-6.284-3.26-12.2-9.544-13.213l-30.528-4.922c-6.284-1.013-12.199,3.26-13.213,9.544l-0.62-0.1        c1.013-6.284-3.26-12.2-9.544-13.213l-30.528-4.922c-6.284-1.013-12.2,3.26-13.213,9.544L273.13,259.173l-0.165-0.024        l0.809-5.019c1.013-6.284-3.26-12.2-9.544-13.213l-30.528-4.922c-6.284-1.013-12.199,3.26-13.213,9.544l-12.245,75.948        l0.307,0.14c-6.607,76.237,48.113,96.428,48.113,96.428l0.119-1.859l0.213,1.808l165,27l-0.074-0.507l32.437-33.549        c11.934-13.383,19.792-29.899,22.647-47.602c5.145-31.904,7.49-45.843,7.49-45.843l-0.194,0.088l20.04-124.3        C505.356,187.007,501.083,181.091,494.799,180.078z M262.684,323.935l0.108-1.692l10.03-62.214l0.14,0.174L262.684,323.935z"/>
						<g>
							<path style="fill:#4EA6E6;" d="M311.086,154.005c6.284,1.013,10.557,6.929,9.544,13.213l-15.634,96.785l21.524,3.139         l16.11-99.924c1.013-6.284-3.26-12.2-9.544-13.213l-30.528-4.922c-3.203-0.516-6.305,0.346-8.716,2.142L311.086,154.005z"/>
							<path style="fill:#4EA6E6;" d="M440.895,171.387l-30.528-4.922c-3.203-0.516-6.305,0.346-8.716,2.142l17.244,2.78         c6.284,1.013,10.557,6.929,9.544,13.213l-16.442,96.403l23.015,3.477l15.442-98.403         C451.452,178.316,447.179,172.4,440.895,171.387z"/>
						</g>
						<g>
							<path style="fill:#4EA6E6;" d="M494.799,180.078l-30.528-4.922c-3.203-0.516-6.305,0.346-8.716,2.142l17.244,2.78         c6.284,1.013,10.557,6.929,9.544,13.213l-20.04,124.3l0.194-0.088c0,0-2.345,13.938-7.49,45.843         c-2.855,17.702-10.714,34.219-22.647,47.602l-30.362,31.056l19.757,2.668l32.605-33.724         c11.934-13.383,19.792-29.899,22.647-47.602c5.145-31.904,7.49-45.843,7.49-45.843l-0.194,0.088l20.04-124.3         C505.356,187.007,501.083,181.091,494.799,180.078z"/>
							<path style="fill:#4EA6E6;" d="M364.991,162.696c6.284,1.013,10.557,6.929,9.544,13.213l-16.11,97.094l22,2.83l16.11-99.924         c1.013-6.284-3.26-12.2-9.544-13.213l-30.528-4.922c-3.203-0.516-6.305,0.346-8.716,2.142L364.991,162.696z"/>
						</g>
						<g>
							<path style="fill:#4EA6E6;" d="M364.991,162.696c6.284,1.013,10.557,6.929,9.544,13.213l-15.538,97.094l21.428,2.83         l16.11-99.924c1.013-6.284-3.26-12.2-9.544-13.213l-30.528-4.922c-3.203-0.516-6.305,0.346-8.716,2.142L364.991,162.696z"/>
						</g>
						<path style="fill:#4EA6E6;" d="M264.23,240.916l-30.528-4.922c-3.203-0.516-6.305,0.346-8.716,2.142l17.244,2.78        c6.284,1.013,10.557,6.929,9.544,13.213l-10.778,63.874l21.796,4.239l10.981-68.114        C274.787,247.845,270.514,241.929,264.23,240.916z"/>
						<path style="fill:#FFFFFF;" d="M289.996,426.003l7.123-42.502c4.914-30.482,33.609-51.209,64.09-46.294h0        c30.482,4.915,51.208,33.609,46.293,64.091l-7.507,42.705"/>
						
							<rect x="302.976" y="376.367" transform="matrix(0.1592 -0.9873 0.9873 0.1592 -174.9908 716.7374)" style="fill:#FDDB33;" width="60.605" height="169.465"/>
						<polygon style="fill:#F9C032;" points="254.449,417.697 254.353,418.292 380.754,438.671 371.203,497.908 375.996,498.681         412.107,504.503 421.754,444.671       "/>
					</g>
					<g>
						<path style="fill:#FDDB33;" d="M273.774,254.129c1.013-6.284-3.26-12.2-9.544-13.213l-30.528-4.922        c-6.284-1.013-12.199,3.26-13.213,9.544l-3.571,22.149l53.3,8.497L273.774,254.129z"/>
					</g>
					<path style="fill:#F9C032;" d="M264.23,240.916l-30.528-4.922c-3.202-0.516-6.305,0.346-8.716,2.142l17.244,2.78       c6.284,1.013,10.557,6.929,9.544,13.213l-3.004,18.635l21.449,3.419l3.556-22.055       C274.787,247.845,270.514,241.929,264.23,240.916z"/>
					<g>
						<path style="fill:#FDDB33;" d="M494.799,180.078l-30.528-4.922c-6.284-1.013-12.2,3.26-13.213,9.544l-0.62-0.1        c1.013-6.284-3.26-12.2-9.544-13.213l-30.528-4.922c-6.284-1.013-12.199,3.26-13.213,9.544l-0.62-0.1        c1.013-6.284-3.26-12.2-9.544-13.213l-30.528-4.922c-6.284-1.013-12.199,3.26-13.213,9.544l-0.62-0.1        c1.013-6.284-3.26-12.2-9.544-13.213l-30.528-4.922c-6.284-1.013-12.2,3.26-13.213,9.544l-4.094,25.382l215.016,34.556        l4.075-25.274C505.356,187.007,501.083,181.091,494.799,180.078z"/>
						<polygon style="fill:none;" points="434.948,284.624 446.983,209.979 446.467,209.896 434.742,284.591       "/>
						
							<rect x="348.96" y="238.262" transform="matrix(0.1592 -0.9873 0.9873 0.1592 89.6562 582.4208)" style="fill:none;" width="75.577" height="0.628"/>
						
							<rect x="295.069" y="229.587" transform="matrix(0.1592 -0.9873 0.9873 0.1592 52.8943 521.9065)" style="fill:none;" width="75.546" height="0.628"/>
						<path style="fill:#F9C032;" d="M386.991,162.696l-30.528-4.922c-3.202-0.516-6.305,0.346-8.716,2.142l17.244,2.78        c6.284,1.013,10.557,6.929,9.544,13.213l-3.525,21.865l21.445,3.445l4.081-25.31        C397.547,169.625,393.275,163.709,386.991,162.696z"/>
						<path style="fill:#F9C032;" d="M333.086,154.005l-30.528-4.922c-3.203-0.516-6.305,0.346-8.716,2.142l17.244,2.78        c6.284,1.013,10.557,6.929,9.544,13.213l-3.53,21.896l21.445,3.445l4.085-25.341        C343.643,160.934,339.37,155.019,333.086,154.005z"/>
						<path style="fill:#F9C032;" d="M494.799,180.078l-30.528-4.922c-3.203-0.516-6.305,0.346-8.716,2.142l17.244,2.78        c6.284,1.013,10.557,6.929,9.544,13.213l-3.515,21.804l21.445,3.445l4.071-25.249        C505.356,187.007,501.083,181.091,494.799,180.078z"/>
						<path style="fill:#F9C032;" d="M440.895,171.387l-30.528-4.922c-3.203-0.516-6.305,0.346-8.716,2.142l17.244,2.78        c6.284,1.013,10.557,6.929,9.544,13.213l-3.43,21.849l21.459,3.447l3.971-25.296        C451.452,178.316,447.179,172.4,440.895,171.387z"/>
					</g>
				</g>
			</g>
		</g>
		<g>
			<polygon style="fill:none;" points="262.793,322.243 262.684,323.935 272.963,260.202 272.823,260.028    "/>
		</g>
	</g>
	<g>
		<polygon style="fill:none;" points="262.793,322.243 262.684,323.935 272.963,260.202 272.823,260.028   "/>
	</g>
	<path d="M495.993,172.673l-30.528-4.922c-4.417-0.715-8.725,0.174-12.35,2.22c-2.798-3.08-6.608-5.277-11.026-5.989l-30.527-4.922   c-4.418-0.712-8.727,0.177-12.351,2.221c-2.798-3.08-6.608-5.278-11.026-5.991l-30.528-4.922   c-4.409-0.713-8.713,0.174-12.337,2.217c-2.887-3.186-6.732-5.291-11.039-5.985l-29.084-4.689l-6.288-38.998   c-1.646-10.212-11.586-17.406-21.811-15.755l-30.527,4.922c-1.414,0.228-2.771,0.623-4.069,1.142l-12.45-77.22   c-0.809-5.017-3.522-9.419-7.643-12.395c-4.118-2.976-9.148-4.171-14.167-3.36l-30.529,4.922   c-4.416,0.712-8.225,2.909-11.022,5.988c-3.624-2.045-7.931-2.933-12.353-2.218l-30.528,4.922c-4.42,0.712-8.231,2.911-11.03,5.993   c-3.625-2.044-7.932-2.933-12.346-2.224l-30.529,4.922c-4.417,0.713-8.226,2.91-11.024,5.99c-3.624-2.045-7.932-2.934-12.351-2.22   L16,31.243C5.788,32.889-1.404,42.829,0.246,53.053l12.76,79.144c1.539,9.548,16.348,7.163,14.809-2.387l-7.5-46.523l38.476-6.203   l10.851,67.303c1.565,9.715,16.99,7.202,15.428-2.486L74.218,74.596l38.476-6.204l10.85,67.302   c1.561,9.698,16.991,7.207,15.429-2.486l-10.851-67.303l38.476-6.204l10.85,67.303c1.563,9.698,16.991,7.207,15.429-2.486   l-10.851-67.304l38.476-6.203l16.149,100.165c0.086,0.535,0.233,1.044,0.422,1.53l4.724,29.3c1.542,9.57,16.348,7.16,14.809-2.387   l-6.228-38.632l38.476-6.204l1.566,9.713c-0.279,0.18-0.564,0.348-0.835,0.543c-4.119,2.976-6.833,7.377-7.642,12.395   l-12.45,77.219c-1.298-0.519-2.655-0.914-4.069-1.142l-30.527-4.922c-5.023-0.81-10.05,0.384-14.168,3.36   c-0.16,0.115-0.303,0.247-0.459,0.367c-9.138-29.749-39.102-49.036-70.68-43.945c-34.516,5.564-58.068,38.172-52.504,72.688   l5.26,32.631l-9.436,1.521l-29.777-30.799c-10.947-12.319-18.119-27.424-20.742-43.693c-2.4-14.88-5.366-33.389-7.848-48.901   c-1.529-9.545-16.341-7.184-14.813,2.369c2.483,15.519,5.451,34.035,7.852,48.921c3.087,19.146,11.543,36.92,24.454,51.398   c0.067,0.075,0.136,0.149,0.206,0.222l30.968,32.03l9.271,57.506c0.594,3.686,3.778,6.308,7.396,6.308   c0.396,0,0.799-0.031,1.202-0.097l101-16.283c3.729,23.173,13.488,39.061,22.426,49.197c7.84,8.891,16.009,14.57,21.771,17.88   l-8.878,55.066c-0.659,4.089,2.121,7.938,6.211,8.598l92.194,14.864c9.549,1.547,11.936-13.269,2.387-14.809l-84.789-13.671   l7.259-45.022l152.495,24.587l-7.259,45.022l-28.706-4.628c-9.551-1.539-11.936,13.27-2.387,14.809l36.109,5.822   c4.033,0.654,7.949-2.181,8.599-6.211l9.271-57.506l30.968-32.03c0.07-0.072,0.139-0.146,0.206-0.222   c12.91-14.478,21.366-32.252,24.454-51.398c5.087-31.546,12.82-80.008,12.897-80.494c0.001-0.006,0.001-0.011,0.002-0.017   l14.437-89.544C513.417,184.129,506.35,174.344,495.993,172.673z M463.078,182.56l30.527,4.922   c2.191,0.354,3.687,2.424,3.333,4.616l-2.872,17.811l-38.476-6.203l2.872-17.812C458.815,183.703,460.884,182.197,463.078,182.56z    M409.173,173.87l30.528,4.922c2.191,0.354,3.687,2.424,3.333,4.615l-2.872,17.812l-38.477-6.203l2.872-17.812   C404.911,175.012,406.972,173.511,409.173,173.87z M355.269,165.178l30.527,4.922c2.191,0.354,3.688,2.425,3.334,4.616   l-2.872,17.812l-38.477-6.204l2.872-17.812C351.007,166.321,353.078,164.82,355.269,165.178z M335.226,166.025l-2.872,17.812   l-38.476-6.203l2.872-17.813c0.388-2.413,3.246-3.817,6.687-2.999l28.456,4.588C334.084,161.763,335.578,163.833,335.226,166.025z    M17.927,68.479c-0.671-4.161-6.123-21.366,0.46-22.427l30.529-4.922c2.191-0.359,4.261,1.143,4.614,3.333l2.872,17.813   L17.927,68.479z M71.83,59.788l-2.872-17.812c-0.354-2.191,1.143-4.263,3.333-4.616l30.528-4.922   c2.193-0.351,4.262,1.143,4.615,3.333l2.872,17.813L71.83,59.788z M125.734,51.096l-2.872-17.812   c-0.354-2.191,1.142-4.262,3.333-4.615l30.529-4.922c2.194-0.356,4.261,1.143,4.614,3.333l2.872,17.812L125.734,51.096z    M179.639,42.406l-2.872-17.811c-0.354-2.191,1.143-4.263,3.333-4.616l30.528-4.922c1.062-0.169,2.126,0.082,2.997,0.711   c0.872,0.63,1.446,1.561,1.617,2.622l2.872,17.813L179.639,42.406z M247.989,126.178l-2.366-14.675   c-0.171-1.062,0.081-2.126,0.711-2.997c0.629-0.872,1.561-1.446,2.622-1.617l30.528-4.922c2.168-0.349,4.265,1.165,4.614,3.333   l2.366,14.674L247.989,126.178z M232.509,243.398l30.526,4.922c1.062,0.171,1.993,0.746,2.623,1.617   c0.63,0.872,0.882,1.937,0.711,2.999l-2.366,14.673l-38.476-6.203l2.366-14.675C228.247,244.54,230.322,243.04,232.509,243.398z    M111.894,258.673c-4.248-26.352,13.733-51.245,40.083-55.493c26.355-4.241,51.244,13.733,55.492,40.083l2.864,17.768   c0.009,0.056,0.025,0.109,0.035,0.165l-2.496,15.482l-90.718,14.626L111.894,258.673z M106.097,354.474l-7.259-45.023   l106.519-17.174l-4.517,28.017c-0.155,0.958-0.114,1.902,0.083,2.796c-0.416,5.675-0.51,11.059-0.314,16.147L106.097,354.474z    M400.099,400.105l-5.26,32.63l-95.575-15.41l5.261-32.63c4.249-26.351,29.138-44.337,55.492-40.085   C386.366,348.86,404.347,373.754,400.099,400.105z M448.86,405.845l-29.777,30.799l-9.436-1.521l5.261-32.631   c5.564-34.516-17.988-67.124-52.504-72.689c-34.519-5.568-67.123,17.989-72.688,52.506l-5.261,32.63l-25.779-4.156   c-14.156-5.937-25.781-18.244-32.892-31.589c-12.267-23.018-11.37-48.854-7.35-73.782c1.569-9.732,3.138-19.464,4.707-29.196   l38.476,6.203l-6.228,38.632c-1.539,9.547,13.267,11.956,14.809,2.387l4.724-29.301c0.189-0.485,0.335-0.995,0.422-1.53   l16.149-100.164l38.476,6.203l-10.851,67.303c-1.564,9.699,13.866,12.18,15.429,2.486l10.85-67.302l38.476,6.203L373.02,274.64   c-1.564,9.699,13.866,12.182,15.429,2.486l10.851-67.303l38.476,6.203l-10.851,67.304c-1.564,9.699,13.865,12.179,15.428,2.486   l10.851-67.303l38.476,6.204l-14.781,91.68c-0.045,0.279-0.071,0.557-0.084,0.833c-2.347,14.662-5.024,31.356-7.211,44.921   C466.979,378.421,459.807,393.527,448.86,405.845z"/>
</g>















</svg>
