<?xml version="1.0" encoding="iso-8859-1"?>
<!-- Generator: Adobe Illustrator 19.0.0, SVG Export Plug-In . SVG Version: 6.00 Build 0)  -->
<svg version="1.1" id="Capa_1" xmlns="http://www.w3.org/2000/svg" xmlns:xlink="http://www.w3.org/1999/xlink" x="0px" y="0px"
	 viewBox="0 0 430.084 430.084" style="enable-background:new 0 0 430.084 430.084;" xml:space="preserve">
<path style="fill:#F1A722;" d="M379.638,85.869c-4-4.8-8-9.6-12-13.6c-3.2-3.2-7.2-7.2-11.2-10.4l-23.2-19.2l77.6,13.6l-8,10.4
	c-4,4.8-6.4,10.4-8.8,16.8l-4,15.2L379.638,85.869z"/>
<path style="fill:#E8E8E8;" d="M8.438,320.269c0.8-33.6,4-66.4,8.8-99.2c3.2-26.4,10.4-52,20.8-76l2.4-4.8h4.8
	c13.6-0.8,62.4-2.4,105.6-2.4c21.6-0.8,43.2,0.8,64.8,3.2c18.4,2.4,56,20,61.6,48.8s-20,57.6-74.4,88c-36,20-141.6,42.4-184.8,50.4
	l-9.6,1.6V320.269z"/>
<path style="fill:#F1A722;" d="M51.638,410.669c-10.4,0-20-4-26.4-11.2c-10.4-11.2-15.2-32-16.8-62.4v-7.2l6.4-0.8
	c71.2-13.6,157.6-34.4,188-51.2c54.4-30.4,79.2-60,73.6-88s-43.2-47.2-61.6-49.6c-21.6-2.4-43.2-3.2-64.8-3.2
	c-36.8,0-76,1.6-96.8,2.4l-14.4,0.8l6.4-12c36.8-68.8,101.6-109.6,173.6-109.6c61.6,0,113.6,18.4,148,53.6s54.4,88,54.4,155.2
	c0,131.2-130.4,148.8-256.8,166.4c-33.6,4.8-68.8,9.6-100.8,16C59.638,409.869,55.638,410.669,51.638,410.669z"/>
<g>
	<path style="fill:#3F2300;" d="M402.838,105.869c-10.4-24,13.6-43.2,14.4-44c3.2-2.4,4-8,1.6-11.2c-1.6-1.6-3.2-2.4-4.8-3.2
		l-87.2-13.6c-33.6-16-70.4-24-108-23.2c-108,0-194.4,85.6-210.4,209.6c-11.2,90.4-14.4,156.8,10.4,184.8c8,9.6,20,14.4,32.8,14.4
		l0,0c4.8,0,9.6-0.8,14.4-1.6c31.2-7.2,66.4-12,100-16c129.6-17.6,264-36,264-174.4
		C430.838,185.069,421.238,143.469,402.838,105.869L402.838,105.869z M395.638,61.869c-4.8,5.6-8,12.8-9.6,19.2
		c-4-4.8-8-9.6-12.8-14.4c-4-4-8-7.2-12-11.2L395.638,61.869z M24.438,221.069c3.2-25.6,9.6-50.4,20-73.6c24-0.8,131.2-5.6,168.8,0
		c16.8,3.2,50.4,19.2,55.2,43.2s-20,52-69.6,80c-36,20-148.8,43.2-182.4,49.6C17.238,287.469,19.638,254.669,24.438,221.069
		L24.438,221.069z M414.038,226.669c0,124-121.6,140.8-250.4,158.4c-34.4,4.8-69.6,9.6-100.8,16c-4,0.8-7.2,1.6-11.2,1.6l0,0
		c-8,0.8-15.2-2.4-20.8-8c-9.6-11.2-13.6-32-14.4-57.6c30.4-5.6,150.4-29.6,190.4-52c57.6-32.8,84-64.8,77.6-96.8
		c-6.4-32.8-48-52.8-68.8-55.2c-36-4.8-128-2.4-163.2-0.8c34.4-64.8,96-105.6,166.4-105.6c60,0,108.8,17.6,142.4,51.2
		S414.038,162.669,414.038,226.669L414.038,226.669z"/>
	<path style="fill:#3F2300;" d="M120.438,173.069c-2.4-4-7.2-4.8-11.2-2.4c-4,2.4-4.8,7.2-2.4,11.2c0,0.8,0.8,0.8,0.8,1.6l33.6,43.2
		c2.4,3.2,8,4,11.2,1.6s4-8,1.6-11.2L120.438,173.069z"/>
	<path style="fill:#3F2300;" d="M98.838,209.869c-2.4-4-7.2-4.8-11.2-3.2c-4,2.4-4.8,7.2-3.2,11.2c0,0.8,0.8,1.6,1.6,1.6l33.6,43.2
		c2.4,3.2,8,4,11.2,1.6c3.2-2.4,4-8,1.6-11.2L98.838,209.869z"/>
</g>
<g>
</g>
<g>
</g>
<g>
</g>
<g>
</g>
<g>
</g>
<g>
</g>
<g>
</g>
<g>
</g>
<g>
</g>
<g>
</g>
<g>
</g>
<g>
</g>
<g>
</g>
<g>
</g>
<g>
</g>
</svg>
