<svg width="60" height="54" viewBox="0 0 60 54" fill="none" xmlns="http://www.w3.org/2000/svg">
<path d="M47.4971 0.750001C47.8406 0.74975 48.1794 0.830421 48.486 0.985478C48.7926 1.14054 49.0583 1.36562 49.2617 1.6425L49.4221 1.89625L58.9392 19.4779L59.05 19.7492L59.085 19.8658L59.1433 20.1633L59.1608 20.4375C59.161 20.6346 59.1345 20.8308 59.0821 21.0208L58.945 21.3854L58.8342 21.5867C58.7697 21.6918 58.6965 21.7913 58.6154 21.8842L58.7904 21.6567L58.7175 21.7588L31.7383 52.3983C31.5143 52.6963 31.2154 52.9298 30.8721 53.075L30.5863 53.1712L30.3588 53.2208L30 53.25L29.7083 53.2325L29.3642 53.1567C29.186 53.1055 29.0153 53.031 28.8567 52.935L28.8304 52.9146C28.692 52.8295 28.5646 52.7276 28.4513 52.6113L1.35543 21.8521L1.27959 21.7588L1.16293 21.5867C0.997669 21.3198 0.892195 21.0203 0.85376 20.7088L0.833344 20.4375L0.842094 20.245L0.88001 19.9854C0.898182 19.9005 0.92156 19.8167 0.95001 19.7346L1.01418 19.5625L1.09584 19.3962L10.575 1.89625C10.7384 1.59425 10.9707 1.33497 11.2529 1.13938C11.5351 0.943795 11.8594 0.817397 12.1996 0.770417L12.4971 0.750001H47.4971ZM38.7413 22.625H21.2442L29.9942 45.0454L38.7413 22.625ZM16.5513 22.625H7.85959L23.4667 40.3408L16.5513 22.625ZM52.1288 22.625H43.44L36.5333 40.3292L52.1288 22.625ZM21.1654 5.125H13.7979L6.68709 18.25H16.9654L21.1654 5.125ZM34.2321 5.125H25.7592L21.5563 18.25H38.4292L34.2292 5.125H34.2321ZM46.1904 5.125H38.8258L43.0258 18.25H53.2983L46.1933 5.125H46.1904Z" fill="url(#paint0_linear_6_69)"/>
<defs>
<linearGradient id="paint0_linear_6_69" x1="4" y1="19.2529" x2="59" y2="19.2529" gradientUnits="userSpaceOnUse">
<stop stop-color="#FCA120"/>
<stop offset="1" stop-color="#FFCF8A"/>
</linearGradient>
</defs>
</svg>
