<?xml version="1.0" encoding="iso-8859-1"?>
<!-- Uploaded to: SVG Repo, www.svgrepo.com, Generator: SVG Repo Mixer Tools -->
<svg height="800px" width="800px" version="1.1" id="Layer_1" xmlns="http://www.w3.org/2000/svg" xmlns:xlink="http://www.w3.org/1999/xlink" 
	 viewBox="0 0 266.69 266.69" xml:space="preserve">
<g>
	<g>
		<g>
			<path style="fill:#4EFFBB;" d="M243.052,75.312h-1.205V42.528c0-3.889-3.204-7.012-7.149-7.012H49.522
				c-3.971,0-7.176,3.122-7.176,7.012v32.785c-12.873,0.164-23.335,10.463-23.335,23.144v126.208
				c0,12.763,10.6,23.144,23.637,23.144h200.405c13.037,0,23.637-10.38,23.637-23.144V98.456
				C266.688,85.693,256.089,75.312,243.052,75.312z M56.67,49.539h170.852v25.773H56.67V49.539z"/>
		</g>
		<g>
			<g id="XMLID_15_">
				<g>
					<path style="fill:#302C58;" d="M187.888,121.838H58.64H14.324v43.329v42.864c0,5.012,4.191,9.12,9.312,9.12h200.405
						c5.149,0,9.312-4.108,9.312-9.12v-86.193H187.888z M58.64,203.977c-21.856,0-39.632-17.419-39.632-38.81
						s17.775-38.783,39.632-38.783c21.829,0,39.604,17.392,39.604,38.783c0,0.657-0.027,1.342-0.055,1.999
						C97.121,187.626,79.784,203.977,58.64,203.977z M113.308,174.15c-3.971,0-7.176-3.15-7.176-7.012
						c0-3.889,3.204-7.039,7.176-7.039c3.944,0,7.176,3.15,7.176,7.039C120.484,171.001,117.252,174.15,113.308,174.15z
						 M133.986,174.15c-3.971,0-7.176-3.15-7.176-7.012c0-3.889,3.204-7.039,7.176-7.039c3.944,0,7.148,3.15,7.148,7.039
						C141.135,171.001,137.93,174.15,133.986,174.15z M187.888,203.977c-21.172,0-38.509-16.351-39.577-36.811
						c-0.027-0.657-0.055-1.342-0.055-1.999c0-21.391,17.775-38.783,39.632-38.783c21.829,0,39.604,17.392,39.604,38.783
						S209.717,203.977,187.888,203.977z"/>
					<path style="fill:#222051;" d="M90.885,18.883H70.633c-3.873,0-7.012,3.139-7.012,7.012l0,0c0,3.873,3.139,7.012,7.012,7.012
						h20.251c3.873,0,7.012-3.139,7.012-7.012l0,0C97.896,22.022,94.755,18.883,90.885,18.883z"/>
					<path style="fill:#222051;" d="M224.041,58.679h-1.205V25.894c0-3.889-3.204-7.012-7.148-7.012h-106.53
						c-3.873,0-7.012,3.139-7.012,7.012l0,0c0,3.873,3.139,7.012,7.012,7.012h99.353v25.773H37.66V32.906h14.697
						c3.873,0,7.012-3.139,7.012-7.012l0,0c0-3.873-3.139-7.012-7.012-7.012H30.511c-3.971,0-7.176,3.122-7.176,7.012v32.785
						C10.463,58.843,0,69.142,0,81.823v126.208c0,12.763,10.6,23.144,23.637,23.144h200.405c13.037,0,23.637-10.38,23.637-23.144
						V81.823C247.678,69.059,237.078,58.679,224.041,58.679z M233.353,208.031c0,5.012-4.163,9.12-9.312,9.12H23.637
						c-5.122,0-9.312-4.108-9.312-9.12v-86.193h219.029v86.193H233.353z M233.353,107.815H14.324V81.823
						c0-5.04,4.191-9.121,9.312-9.121h200.405c5.149,0,9.312,4.081,9.312,9.121V107.815z"/>
					<path style="fill:#302C58;" d="M128.153,101.871c5.533,0,10.024-4.41,10.024-9.833s-4.492-9.805-10.024-9.805
						c-5.56,0-10.024,4.382-10.024,9.805S122.593,101.871,128.153,101.871z M198.761,101.871c5.533,0,10.024-4.41,10.024-9.833
						s-4.492-9.805-10.024-9.805c-5.533,0-10.024,4.382-10.024,9.805S193.229,101.871,198.761,101.871z M164.279,101.871
						c5.533,0,10.024-4.41,10.024-9.833s-4.492-9.805-10.024-9.805s-10.024,4.382-10.024,9.805S158.746,101.871,164.279,101.871z
						 M25.746,97.16c0,1.397,1.123,2.492,2.52,2.492h46.616c1.397,0,2.52-1.096,2.52-2.492V86.177c0-1.397-1.123-2.492-2.52-2.492
						H28.265c-1.397,0-2.52,1.096-2.52,2.492V97.16H25.746z M233.353,107.815H14.324V81.823c0-5.04,4.191-9.121,9.312-9.121h200.405
						c5.149,0,9.312,4.081,9.312,9.121V107.815z"/>
					<path style="fill:#222051;" d="M187.888,126.384c21.829,0,39.604,17.392,39.604,38.783s-17.775,38.81-39.604,38.81
						c-21.172,0-38.509-16.351-39.577-36.811c-0.027-0.657-0.055-1.342-0.055-1.999
						C148.256,143.775,166.031,126.384,187.888,126.384z M187.888,189.954c13.941,0,25.28-11.12,25.28-24.787
						c0-13.64-11.339-24.76-25.28-24.76s-25.307,11.12-25.307,24.76C162.58,178.833,173.947,189.954,187.888,189.954z"/>
					<path style="fill:#222051;" d="M187.888,155.088c5.697,0,10.298,4.519,10.298,10.079c0,5.587-4.601,10.106-10.298,10.106
						s-10.326-4.519-10.326-10.106C177.562,159.607,182.191,155.088,187.888,155.088z"/>
					<path style="fill:#222051;" d="M98.244,165.167c0,0.657-0.027,1.342-0.055,1.999c-1.068,20.459-18.405,36.811-39.55,36.811
						c-21.856,0-39.632-17.419-39.632-38.81s17.775-38.783,39.632-38.783C80.469,126.384,98.244,143.775,98.244,165.167z
						 M58.64,189.954c13.941,0,25.28-11.12,25.28-24.787c0-13.64-11.339-24.76-25.28-24.76c-13.968,0-25.307,11.12-25.307,24.76
						C33.332,178.833,44.671,189.954,58.64,189.954z"/>
					<path style="fill:#222051;" d="M58.64,155.088c5.697,0,10.298,4.519,10.298,10.079c0,5.587-4.601,10.106-10.298,10.106
						s-10.326-4.519-10.326-10.106C48.314,159.607,52.943,155.088,58.64,155.088z"/>
				</g>
			</g>
		</g>
	</g>
</g>
</svg>