<svg id="Capa_1" enable-background="new 0 0 512 512" height="512" viewBox="0 0 512 512" width="512" xmlns="http://www.w3.org/2000/svg"><g><g><path d="m406.998 342.459h30.003v67.082h-30.003z" fill="#2e384d" transform="matrix(.894 -.447 .447 .894 -123.601 228.42)"/></g><g><g><path d="m406.998 342.459h30.003v67.082h-30.003z" fill="#2e384d" transform="matrix(.894 -.447 .447 .894 -123.601 228.42)"/></g></g><path d="m512 361h-210c0-3.021 0-33.021 0-30h-242v-270h452z" fill="#3d4b66"/><g><path d="m302 331c0-3.021 0 26.979 0 30h210v-300h-226v270z" fill="#2e384d"/></g><g><path d="m90 91h392v240h-392z" fill="#80eaff"/></g><path d="m286 91h196v240h-196z" fill="#80d5ff"/><g id="_x33_D_glasses_2_"><g><path d="m0 301 15 15 15-15v-90h-30z" fill="#f3f5f9"/></g><g><g><path d="m332 301v-90h-30v90l15 15z" fill="#4d5e80"/></g></g><g><path d="m271 271h-30v-15c0-57.891-47.109-105-105-105h-15v-30h15c74.443 0 135 60.557 135 135z" fill="#3d4b66"/></g><g><path d="m211 271h-30v-15c0-24.814-20.186-45-45-45h-15v-30h15c41.367 0 75 33.647 75 75z" fill="#3d4b66"/></g><g><path d="m121 241h30v30h-30z" fill="#3d4b66"/></g></g><g id="_x33_D_glasses_1_"><g><g><path d="m332 301v-90h-30v90l15 15z" fill="#e1e6f0"/></g></g></g><g><path d="m332 451h-146.811l-15-45h-4.189-4.189l-15 45h-146.811v-150h332z" fill="#f3f5f9"/><path d="m170.189 406 15 45h146.811v-150h-166v105z" fill="#e1e6f0"/></g><path d="m140.189 376-15 45h-95.189v-90h271.571v90h-95.189l-15-45z" fill="#80eaff"/><path d="m301.572 331h-135.572v45h25.382l15 45h95.19z" fill="#80d5ff"/></g></svg>